<svg fill="#226CC5" xmlns="http://www.w3.org/2000/svg" version="1.1" viewBox="-5.0 -10.0 110.0 135.0">
 <path d="m83.281 43.859h-66.562v18.594h15.859c0.86328 0 1.5625 0.69922 1.5625 1.5625v13.613h15.855c0.86328 0 1.5625 0.69922 1.5625 1.5625v13.613h14.293v-28.789c0-0.86328 0.69922-1.5625 1.5625-1.5625h15.859v-18.594z"/>
 <path d="m16.727 65.578v12.051h14.293v-12.051h-5.5859v1.8984c0 0.86328-0.69922 1.5625-1.5625 1.5625-0.86328 0-1.5625-0.69922-1.5625-1.5625v-1.8984h-5.5859z"/>
 <path d="m34.145 80.754v12.051h14.293v-12.051h-5.5859v1.8984c0 0.86328-0.69922 1.5625-1.5625 1.5625-0.86328 0-1.5625-0.69922-1.5625-1.5625v-1.8984h-5.5859z"/>
 <path d="m16.727 92.805h14.293v-12.051h-5.5859v1.8984c0 0.86328-0.69922 1.5625-1.5625 1.5625-0.86328 0-1.5625-0.69922-1.5625-1.5625v-1.8984h-5.5859v12.051z"/>
 <path d="m93.75 92.805v-60.957l-43.75-24.426-43.75 24.426v60.957h7.3438v-50.508c0-0.86328 0.69922-1.5625 1.5625-1.5625h69.688c0.86328 0 1.5625 0.69922 1.5625 1.5625v50.508zm-38.891-61.207h-9.7227c-0.86328 0-1.5625-0.69922-1.5625-1.5625 0-0.86328 0.69922-1.5625 1.5625-1.5625h9.7227c0.86328 0 1.5625 0.69922 1.5625 1.5625 0 0.86328-0.69922 1.5625-1.5625 1.5625z"/>
 <path d="m83.273 65.578h-5.5859v1.8984c0 0.86328-0.69922 1.5625-1.5625 1.5625s-1.5625-0.69922-1.5625-1.5625v-1.8984h-5.5859v12.051h14.293v-12.051z"/>
 <path d="m68.98 80.754v12.051h14.293v-12.051h-5.5859v1.8984c0 0.86328-0.69922 1.5625-1.5625 1.5625s-1.5625-0.69922-1.5625-1.5625v-1.8984h-5.5859z"/>
</svg>